<svg width="389" height="388" viewBox="0 0 389 388" fill="none" xmlns="http://www.w3.org/2000/svg">
<path fill-rule="evenodd" clip-rule="evenodd" d="M182.763 0.268537C138.463 3.96854 106.863 15.9685 74.2631 41.3685C59.7631 52.6685 53.0631 59.6685 36.4631 80.6685C35.7631 81.4685 32.9631 85.7685 30.0631 90.1685C-9.83692 151.869 -10.0369 231.769 29.5631 296.169C32.5631 301.069 35.3631 305.369 35.6631 305.669C36.0631 305.969 38.5631 309.069 41.2631 312.669C48.3631 322.169 67.7631 341.069 79.2631 349.669C114.763 376.369 153.963 388.569 200.263 387.369C237.863 386.369 270.863 376.369 300.463 356.869C309.863 350.769 310.563 350.169 323.363 338.969C363.463 303.669 385.663 256.769 388.363 201.769C391.063 146.969 369.763 95.0685 327.363 53.3685C318.263 44.4685 316.963 43.3685 301.863 33.0685C284.463 21.2685 258.263 9.46854 239.763 5.26854C224.063 1.56854 195.863 -0.831463 182.763 0.268537ZM193.563 2.36854C192.563 2.56854 190.763 2.56854 189.563 2.36854C188.263 2.16854 189.063 1.96854 191.263 1.96854C193.463 1.86854 194.463 2.06854 193.563 2.36854ZM178.563 3.36854C177.563 3.56854 175.763 3.56854 174.563 3.36854C173.263 3.16854 174.063 2.96854 176.263 2.96854C178.463 2.86854 179.463 3.06854 178.563 3.36854ZM171.663 4.06854C170.863 4.86854 163.863 5.06854 163.163 4.36854C162.763 3.96854 164.563 3.66854 167.263 3.66854C169.963 3.66854 171.863 3.86854 171.663 4.06854ZM219.063 4.36854C218.363 4.56854 216.963 4.56854 216.063 4.36854C215.063 4.06854 215.663 3.86854 217.263 3.86854C218.963 3.86854 219.663 4.06854 219.063 4.36854ZM149.763 7.76854C146.163 8.76854 142.863 9.56854 142.263 9.56854C140.563 9.36854 152.163 5.76854 154.263 5.76854C155.363 5.76854 153.363 6.66854 149.763 7.76854ZM218.763 9.66854C268.963 15.6685 318.363 46.7685 348.163 91.1685C388.363 151.069 390.163 228.469 352.863 290.069C344.363 303.969 320.463 331.669 316.863 331.669C316.163 331.669 315.763 328.469 315.763 321.969C315.763 310.369 314.763 308.669 308.063 308.669C305.763 308.669 303.763 309.069 303.763 309.669C303.763 310.169 303.063 310.669 302.263 310.669C300.963 310.669 300.763 308.369 300.763 296.069C300.763 282.169 300.063 278.669 297.363 278.669C297.063 278.669 294.363 277.569 291.363 276.169C288.363 274.769 285.363 273.669 284.863 273.669C284.263 273.669 283.763 273.269 283.763 272.769C283.763 270.769 274.763 270.369 270.663 272.169L266.763 273.969V298.969V323.969L262.563 323.069C260.163 322.669 256.463 322.269 254.263 322.269L250.263 322.369L250.563 318.069C251.163 311.569 249.863 310.169 241.563 308.069C233.663 306.069 230.163 306.069 222.063 308.169L216.763 309.469V290.669V271.869L219.563 271.269C221.063 270.969 225.063 270.269 228.563 269.669C232.063 269.069 238.163 267.469 242.063 266.069C246.063 264.669 250.163 263.269 251.263 262.969C254.963 261.769 269.563 252.769 270.163 251.169C270.963 249.069 271.063 213.669 270.263 212.869C268.763 211.369 266.063 214.869 263.663 221.269C260.563 229.869 255.563 239.269 251.763 243.869C246.263 250.569 231.063 258.769 220.063 261.169L216.763 261.869V256.669C216.763 251.169 213.863 247.069 209.463 246.469C206.463 246.069 204.463 241.869 206.363 239.969C208.763 237.569 208.163 229.869 205.163 225.969C203.763 224.169 202.163 222.869 201.663 223.169C201.163 223.569 200.763 223.269 200.763 222.669C200.763 222.069 200.363 221.769 199.863 222.069C198.363 223.069 197.763 216.869 197.763 199.569C197.763 184.269 197.063 179.869 195.363 184.269C195.063 185.169 194.763 193.669 194.763 203.169V220.569L191.763 224.069C188.963 227.269 188.663 228.069 188.763 234.369C188.963 242.769 187.863 246.869 184.963 248.169C183.063 248.969 182.763 249.969 182.763 254.369C182.763 260.469 183.163 260.269 176.463 257.469C152.463 247.369 136.563 221.669 131.163 184.169C127.063 155.669 135.563 122.869 151.563 105.569C169.363 86.3685 194.263 79.8685 223.663 86.7685C243.763 91.4685 253.363 99.4685 260.863 118.169C263.963 125.969 264.763 127.169 266.863 127.169H269.263L269.563 111.169C269.663 102.369 269.563 94.1685 269.263 93.0685C268.963 91.5685 266.163 89.5685 261.063 86.8685C242.463 77.2685 207.363 72.3685 185.163 76.1685C149.463 82.4685 125.463 99.3685 112.163 127.669C97.5631 158.669 99.1631 196.969 116.163 226.169C120.963 234.369 141.163 255.069 147.263 258.169C149.463 259.169 151.963 260.569 152.763 261.269C154.963 262.969 169.463 268.269 176.063 269.669C180.063 270.569 181.763 271.469 181.863 272.569C182.463 294.169 181.963 305.869 180.563 301.669C180.263 300.669 165.563 294.669 162.763 294.369C159.263 294.069 154.663 296.069 152.263 298.869C149.963 301.669 149.763 302.469 149.763 312.769V323.769L146.863 323.369C145.363 323.069 142.963 322.269 141.663 321.569C139.063 320.169 135.663 320.269 128.763 321.869C127.463 322.069 127.163 319.469 126.763 303.669L126.263 285.269L122.263 282.569C114.463 277.169 109.563 275.169 108.363 276.769C107.763 277.569 105.563 279.069 103.563 279.969C96.6631 283.169 96.7631 282.869 96.7631 303.369C96.7631 318.069 96.4631 321.669 95.5631 320.969C94.8631 320.369 91.7631 319.869 88.6631 319.769C81.5631 319.469 79.7631 321.469 79.7631 329.469C79.7631 334.569 79.6631 334.769 77.5631 334.069C74.4631 333.169 67.7631 327.469 58.6631 317.969C35.4631 293.869 20.5631 264.769 13.3631 229.669C-1.43692 157.469 26.0631 87.6685 86.8631 42.5685C104.763 29.3685 138.663 14.4685 156.263 12.1685C158.463 11.8685 164.063 11.0685 168.763 10.2685C179.063 8.56854 207.063 8.26854 218.763 9.66854ZM130.963 13.6685C126.963 15.3685 122.763 16.6685 121.663 16.6685C120.663 16.6685 119.763 17.1685 119.763 17.7685C119.763 18.2685 119.263 18.4685 118.663 18.1685C117.163 17.1685 117.563 16.9685 126.863 13.6685C137.763 9.86854 140.363 9.86854 130.963 13.6685ZM116.663 18.9685C114.263 20.4685 101.663 26.7685 101.263 26.6685C100.963 26.6685 99.2631 27.7685 97.3631 29.1685C95.5631 30.5685 93.5631 31.6685 92.9631 31.6685C92.2631 31.6685 91.7631 32.0685 91.7631 32.6685C91.7631 33.1685 91.3631 33.6685 90.7631 33.6685C88.4631 33.6685 90.0631 31.7685 94.8631 29.0685C102.563 24.5685 116.263 17.8685 116.663 18.2685C116.863 18.4685 116.863 18.7685 116.663 18.9685ZM88.7631 34.0685C88.7631 34.3685 86.3631 36.2685 83.3631 38.4685C76.0631 43.6685 70.1631 48.4685 66.0631 52.5685C64.1631 54.3685 62.4631 55.6685 62.1631 55.4685C61.5631 54.7685 73.6631 44.1685 81.7631 38.3685C88.2631 33.6685 88.7631 33.2685 88.7631 34.0685ZM319.363 53.3685C318.663 54.0685 316.763 52.6685 316.763 51.4685C316.763 50.8685 317.363 50.8685 318.263 51.6685C319.163 52.3685 319.563 53.1685 319.363 53.3685ZM59.5631 58.0685C58.5631 58.7685 58.1631 59.7685 58.5631 60.1685C58.9631 60.6685 58.6631 60.6685 57.8631 60.1685C56.6631 59.4685 56.7631 59.1685 58.2631 57.9685C60.6631 56.2685 61.8631 56.2685 59.5631 58.0685ZM56.7631 61.0685C56.7631 61.7685 52.6631 65.8685 50.2631 67.6685C49.1631 68.4685 49.8631 67.2685 51.7631 64.9685C54.8631 61.2685 56.7631 59.8685 56.7631 61.0685ZM335.263 68.7685C336.363 70.4685 335.163 70.8685 333.763 69.1685C332.963 68.2685 332.963 67.6685 333.563 67.6685C334.163 67.6685 334.963 68.1685 335.263 68.7685ZM47.4631 71.4685C46.4631 72.4685 45.9631 73.5685 46.0631 73.7685C46.2631 73.9685 44.8631 75.4685 42.8631 77.1685C39.7631 79.6685 39.5631 79.7685 41.2631 77.6685C44.3631 73.6685 48.0631 69.6685 48.5631 69.6685C48.8631 69.6685 48.3631 70.4685 47.4631 71.4685ZM342.863 78.3685C346.763 83.6685 347.963 85.6685 347.563 85.6685C347.363 85.6685 345.363 83.2685 343.263 80.3685C341.063 77.5685 338.863 74.8685 338.263 74.4685C337.563 73.9685 337.663 73.6685 338.363 73.6685C338.963 73.6685 340.963 75.7685 342.863 78.3685ZM180.263 79.5685C179.163 80.0685 176.663 80.6685 174.763 80.9685C171.263 81.5685 171.363 81.5685 175.263 80.1685C179.563 78.7685 183.663 78.2685 180.263 79.5685ZM38.3631 82.8685C37.4631 84.1685 36.4631 85.8685 36.0631 86.6685C35.6631 87.4685 34.5631 89.0685 33.5631 90.0685C32.5631 91.1685 31.7631 92.6685 31.7631 93.3685C31.7631 94.0685 31.2631 94.6685 30.6631 94.6685C30.1631 94.6685 29.8631 95.0685 30.1631 95.5685C30.4631 96.0685 30.0631 96.7685 29.1631 97.0685C28.1631 97.4685 27.8631 97.2685 28.3631 96.3685C32.8631 89.0685 38.7631 80.6685 39.5631 80.6685C39.7631 80.6685 39.2631 81.6685 38.3631 82.8685ZM167.663 83.0685C167.463 83.2685 164.163 84.6685 160.263 86.1685C156.463 87.5685 153.763 88.3685 154.263 87.8685C155.963 86.2685 169.163 81.5685 167.663 83.0685ZM353.263 92.4685C353.063 92.6685 354.163 94.6685 355.763 96.9685C357.363 99.2685 358.463 101.369 358.163 101.569C357.663 102.169 357.863 102.469 352.363 93.6685C348.563 87.6685 348.163 86.7685 350.563 89.1685C352.163 90.7685 353.363 92.3685 353.263 92.4685ZM146.263 93.2685C144.663 94.6685 142.063 96.4685 140.663 97.1685C137.163 99.0685 124.463 112.869 125.563 113.569C126.763 114.269 124.263 117.669 121.263 119.569C119.463 120.669 119.463 120.669 121.763 120.069C123.763 119.569 124.063 119.669 123.063 120.769C122.363 121.469 121.763 122.469 121.763 122.869C121.763 123.569 122.963 122.669 128.063 117.969C133.563 112.869 132.163 125.569 126.563 131.369C124.663 133.269 123.863 134.969 124.263 135.769C124.763 136.469 124.663 136.769 123.963 136.269C122.563 135.469 117.563 137.369 116.063 139.369C115.363 140.269 114.763 140.569 114.763 139.869C114.763 136.669 111.563 140.569 110.163 145.569C107.963 153.469 107.763 154.069 107.163 153.469C106.863 153.169 107.563 149.269 108.663 144.869C114.063 123.769 124.463 108.069 141.263 95.2685C147.663 90.3685 151.163 88.9685 146.263 93.2685ZM27.0631 100.669C26.7631 101.769 26.1631 102.669 25.5631 102.669C25.0631 102.669 25.1631 101.769 25.7631 100.669C26.3631 99.5685 26.9631 98.6685 27.1631 98.6685C27.3631 98.6685 27.3631 99.5685 27.0631 100.669ZM148.763 102.969C148.763 103.169 147.663 104.769 146.263 106.669C144.863 108.569 143.763 109.769 143.763 109.369C143.763 108.869 144.763 107.269 145.963 105.669C147.963 102.969 148.763 102.169 148.763 102.969ZM21.9631 111.269C20.3631 113.969 18.8631 117.069 18.5631 118.169C18.1631 119.269 16.4631 123.969 14.7631 128.669C13.0631 133.369 11.3631 138.069 11.1631 139.169C10.9631 140.269 10.0631 144.069 9.16308 147.669C8.36308 151.269 7.36308 155.269 7.06308 156.669C6.66308 158.369 6.36308 158.669 6.06308 157.569C5.56308 155.569 9.36308 140.569 13.2631 129.169C16.6631 118.769 24.1631 102.769 24.5631 104.869C24.7631 105.669 23.5631 108.569 21.9631 111.269ZM366.663 118.169C366.663 118.669 365.563 117.169 364.263 114.669C362.963 112.169 361.863 109.669 361.863 109.169C361.863 108.569 362.963 110.169 364.263 112.669C365.563 115.169 366.663 117.569 366.663 118.169ZM139.363 118.169C133.863 127.369 130.463 138.669 128.263 154.169C127.263 161.169 126.963 162.069 126.863 158.569C126.663 151.569 129.363 137.969 132.363 130.669C133.763 127.069 134.963 123.369 134.963 122.469C134.863 121.469 135.663 120.269 136.763 119.669C137.763 119.169 139.063 117.269 139.663 115.569C140.263 113.769 141.063 112.669 141.363 112.969C141.763 113.269 140.763 115.669 139.363 118.169ZM370.063 125.669C370.363 126.769 370.263 127.469 369.763 127.169C369.363 126.869 368.763 125.769 368.463 124.669C368.163 123.569 368.263 122.869 368.763 123.169C369.163 123.469 369.763 124.569 370.063 125.669ZM376.663 145.669C376.663 146.569 376.263 146.469 375.763 145.169C375.263 144.069 374.863 142.469 374.863 141.669C374.863 140.769 375.263 140.869 375.763 142.169C376.263 143.269 376.663 144.869 376.663 145.669ZM106.763 161.169L106.063 167.169L105.863 161.569C105.863 158.469 106.063 155.669 106.463 155.369C107.463 154.269 107.463 154.669 106.763 161.169ZM4.76308 170.369C4.06308 175.769 3.46308 186.469 3.46308 194.169C3.46308 207.669 3.46308 207.869 2.76308 199.169C1.76308 187.369 3.86308 158.369 5.46308 160.069C5.76308 160.369 5.46308 164.969 4.76308 170.369ZM381.363 167.869C382.163 172.269 382.563 182.069 382.563 192.169L382.463 209.169L381.763 189.669C381.363 178.969 380.763 168.969 380.363 167.369C378.863 160.969 378.663 159.169 379.363 159.869C379.763 160.269 380.663 163.869 381.363 167.869ZM129.563 192.169C130.163 194.869 131.363 199.869 132.363 203.169C133.263 206.469 134.063 209.969 134.063 210.869C134.163 211.869 134.563 212.669 134.963 212.669C135.363 212.669 135.763 213.169 135.763 213.669C135.763 214.769 139.063 222.569 141.563 227.169C143.063 229.969 142.863 229.869 139.063 226.169C136.663 223.769 135.363 221.769 135.863 221.269C137.263 219.769 136.863 218.369 135.263 218.969C134.463 219.369 133.563 219.069 133.163 218.469C132.763 217.769 132.863 217.669 133.563 218.069C134.363 218.569 134.763 217.969 134.763 216.269C134.763 214.869 134.263 213.469 133.663 213.169C133.063 212.769 132.863 211.869 133.063 211.269C133.363 210.569 133.263 209.469 132.863 208.769C132.463 208.169 132.163 210.769 132.163 214.569C132.263 220.169 132.563 221.369 133.763 220.869C134.563 220.569 134.963 220.669 134.563 221.169C134.163 221.569 134.763 223.269 135.863 224.769L137.863 227.669L134.863 227.069C132.863 226.669 131.763 226.869 131.763 227.569C131.763 228.169 132.663 228.669 133.763 228.669C136.163 228.669 136.363 230.369 134.063 232.869C132.463 234.669 132.363 234.669 130.063 232.469C125.963 228.669 124.463 229.269 126.763 233.769C127.863 235.869 129.063 237.669 129.363 237.669C129.663 237.669 129.563 237.169 129.163 236.469C128.663 235.769 128.963 235.669 129.863 236.169C130.663 236.569 130.263 235.969 129.063 234.769C127.763 233.569 126.763 232.069 126.763 231.369C126.763 230.669 127.963 231.369 129.263 232.969C130.763 234.669 131.463 236.369 131.063 237.369C130.663 238.369 130.863 238.769 131.463 238.369C132.063 237.969 132.463 238.469 132.363 239.469C132.263 240.669 132.863 241.069 134.263 240.869C135.863 240.669 135.963 240.769 134.763 241.569C133.463 242.569 134.063 243.069 136.063 242.769C136.463 242.769 136.663 243.069 136.563 243.469C136.363 243.969 138.563 246.469 141.263 249.169C146.863 254.469 145.163 253.469 136.563 246.269C133.363 243.569 130.763 240.769 130.763 239.869C130.763 239.069 130.463 238.569 130.163 238.969C129.363 239.669 128.363 238.669 122.863 231.769C113.863 220.269 107.763 203.769 105.763 185.869C104.263 172.469 105.063 169.769 106.763 182.369C107.463 187.169 108.563 192.769 109.363 194.669L110.763 198.169L110.563 194.669C110.363 190.469 112.663 183.669 114.363 183.669C114.963 183.669 115.763 184.969 116.163 186.669C116.563 188.769 117.263 189.669 118.763 189.669C120.063 189.669 120.763 190.369 120.763 191.469C120.763 192.469 121.163 193.669 121.663 194.169C122.163 194.769 123.063 196.769 123.563 198.669C124.163 200.569 124.663 201.369 124.663 200.369C124.763 199.269 125.163 198.869 125.963 199.269C126.763 199.769 126.863 199.469 126.463 198.369C126.163 197.469 126.263 196.469 126.763 196.169C127.363 195.769 127.763 196.669 127.763 198.069C127.763 199.469 127.363 200.769 126.863 201.069C125.763 201.769 126.563 205.669 127.763 205.669C128.263 205.669 128.363 204.769 128.063 203.669C127.363 200.969 128.563 201.169 129.863 203.869C130.663 205.869 130.763 205.769 130.263 203.169C129.063 197.069 128.963 196.169 128.863 194.369C128.763 193.369 128.363 192.769 127.863 193.069C127.363 193.469 127.163 192.669 127.563 191.469C127.863 190.369 127.663 189.569 127.163 189.869C126.063 190.569 125.363 169.169 126.463 165.669C126.963 164.069 127.363 167.269 127.863 175.169C128.163 181.769 128.963 189.369 129.563 192.169ZM105.463 171.369C105.163 172.369 104.963 171.769 104.963 170.169C104.963 168.469 105.163 167.769 105.463 168.369C105.663 169.069 105.663 170.469 105.463 171.369ZM4.76308 212.369C4.86308 214.469 5.26308 218.169 5.86308 220.669C6.46308 223.169 7.26308 227.869 7.86308 231.169C8.36308 234.469 10.5631 242.969 12.7631 250.169C14.8631 257.269 16.4631 263.269 16.2631 263.469C15.4631 264.269 8.76308 241.169 6.46308 229.569C3.36308 214.469 2.66308 208.669 3.86308 208.669C4.36308 208.669 4.76308 210.369 4.76308 212.369ZM381.863 214.269C381.163 217.369 380.963 217.669 380.863 215.469C380.763 212.769 381.763 209.269 382.363 209.969C382.663 210.169 382.363 212.169 381.863 214.269ZM380.463 222.369C380.163 223.369 379.963 222.769 379.963 221.169C379.963 219.469 380.163 218.769 380.463 219.369C380.663 220.069 380.663 221.469 380.463 222.369ZM379.463 228.369C379.163 229.369 378.963 228.769 378.963 227.169C378.963 225.469 379.163 224.769 379.463 225.369C379.663 226.069 379.663 227.469 379.463 228.369ZM195.463 231.369C195.163 232.369 194.963 231.769 194.963 230.169C194.963 228.469 195.163 227.769 195.463 228.369C195.663 229.069 195.663 230.469 195.463 231.369ZM259.663 238.069C258.963 239.469 258.063 240.669 257.563 240.669C257.063 240.669 257.463 239.369 258.363 237.669C260.463 234.169 261.363 234.369 259.663 238.069ZM377.563 238.369C377.063 240.469 376.363 242.369 376.063 242.669C375.463 243.269 376.763 236.569 377.463 235.369C378.463 233.669 378.563 234.969 377.563 238.369ZM248.563 250.569C246.763 252.169 245.063 253.369 244.863 253.169C244.463 252.669 249.963 247.769 251.063 247.669C251.463 247.669 250.363 248.969 248.563 250.569ZM372.263 255.369C371.363 256.869 370.963 257.269 371.263 256.169C371.663 255.069 372.263 253.269 372.563 252.169C372.863 251.069 373.263 250.769 373.463 251.369C373.763 252.069 373.163 253.769 372.263 255.369ZM193.463 262.369C193.263 263.969 193.063 262.669 193.063 259.669C193.063 256.669 193.263 255.369 193.463 256.869C193.663 258.469 193.663 260.869 193.463 262.369ZM369.563 263.769C368.963 265.369 368.363 266.569 368.163 266.369C367.663 265.869 369.463 260.669 370.163 260.669C370.463 260.669 370.163 262.069 369.563 263.769ZM366.863 270.369C366.063 271.869 365.863 271.869 365.763 270.569C365.763 268.869 366.763 267.369 367.563 268.069C367.763 268.369 367.463 269.369 366.863 270.369ZM193.463 319.869C193.363 329.369 193.163 321.869 193.163 303.169C193.163 284.469 193.363 276.669 193.463 285.869C193.663 295.069 193.663 310.369 193.463 319.869ZM201.463 273.369C201.163 274.369 200.963 273.769 200.963 272.169C200.963 270.469 201.163 269.769 201.463 270.369C201.663 271.069 201.663 272.469 201.463 273.369ZM211.463 280.869C211.263 283.269 211.063 281.569 211.063 277.169C211.063 272.769 211.263 270.869 211.463 272.869C211.663 274.969 211.663 278.569 211.463 280.869ZM22.3631 275.269C23.1631 277.269 23.6631 279.169 23.3631 279.469C23.0631 279.669 22.5631 279.069 22.2631 278.069C21.8631 277.069 21.1631 275.369 20.6631 274.469C19.6631 272.469 19.5631 271.669 20.3631 271.669C20.6631 271.669 21.5631 273.269 22.3631 275.269ZM363.663 277.069C360.763 281.969 360.263 281.669 362.763 276.569C363.963 274.269 365.163 272.669 365.363 272.969C365.663 273.169 364.863 275.069 363.663 277.069ZM214.463 294.869C214.363 298.869 214.163 295.669 214.163 287.669C214.163 279.669 214.363 276.469 214.463 280.369C214.663 284.369 214.663 290.969 214.463 294.869ZM184.463 282.869C184.263 284.169 184.063 283.169 184.063 280.669C184.063 278.169 184.263 277.169 184.463 278.369C184.663 279.669 184.663 281.669 184.463 282.869ZM201.463 288.869C201.263 291.269 201.063 289.369 201.063 284.669C201.063 279.969 201.263 278.069 201.463 280.369C201.663 282.769 201.663 286.569 201.463 288.869ZM273.463 290.869C273.263 292.669 273.063 291.269 273.063 287.669C273.063 284.069 273.263 282.669 273.463 284.369C273.663 286.169 273.663 289.169 273.463 290.869ZM270.463 312.469C270.363 317.769 270.163 313.169 270.163 302.169C270.163 291.169 270.363 286.769 270.463 292.469C270.663 298.169 270.663 307.169 270.463 312.469ZM360.763 283.969C360.763 284.169 359.763 285.169 358.663 286.269C356.463 288.169 356.463 288.169 357.863 285.869C359.063 283.969 360.763 282.869 360.763 283.969ZM184.463 289.369C184.163 290.369 183.963 289.769 183.963 288.169C183.963 286.469 184.163 285.769 184.463 286.369C184.663 287.069 184.663 288.469 184.463 289.369ZM211.463 290.369C211.163 291.369 210.963 290.569 210.963 288.669C210.963 286.769 211.163 285.969 211.463 286.869C211.663 287.869 211.663 289.469 211.463 290.369ZM31.7631 293.369C31.7631 293.769 32.4631 294.869 33.4631 295.869C34.3631 296.869 34.6631 297.669 34.1631 297.669C33.5631 297.669 31.9631 295.469 30.4631 292.669C27.3631 286.869 26.8631 284.669 29.7631 289.469C30.8631 291.269 31.7631 292.969 31.7631 293.369ZM113.463 295.869C113.263 297.169 113.063 296.369 113.063 294.169C112.963 291.969 113.163 290.969 113.463 291.869C113.663 292.869 113.663 294.669 113.463 295.869ZM354.163 293.669C353.163 295.269 352.163 296.469 351.963 296.269C351.563 295.769 354.763 290.669 355.463 290.669C355.663 290.669 355.063 291.969 354.163 293.669ZM211.463 323.369C211.363 329.269 211.163 324.669 211.163 313.169C211.163 301.569 211.363 296.769 211.463 302.369C211.663 307.969 211.663 317.469 211.463 323.369ZM184.463 298.369C184.163 299.369 183.963 298.569 183.963 296.669C183.963 294.769 184.163 293.969 184.463 294.869C184.663 295.869 184.663 297.469 184.463 298.369ZM190.463 297.369C190.163 298.369 189.963 297.769 189.963 296.169C189.963 294.469 190.163 293.769 190.463 294.369C190.663 295.069 190.663 296.469 190.463 297.369ZM201.463 299.869C201.263 301.169 201.063 300.169 201.063 297.669C201.063 295.169 201.263 294.169 201.463 295.369C201.663 296.669 201.663 298.669 201.463 299.869ZM204.463 303.369C204.263 304.969 204.063 303.869 204.063 301.169C204.063 298.369 204.263 297.169 204.463 298.369C204.663 299.669 204.663 301.869 204.463 303.369ZM109.463 301.369C109.163 302.369 108.963 301.769 108.963 300.169C108.963 298.469 109.163 297.769 109.463 298.369C109.663 299.069 109.663 300.469 109.463 301.369ZM289.463 308.369C289.263 309.969 289.063 308.669 289.063 305.669C289.063 302.669 289.263 301.369 289.463 302.869C289.663 304.469 289.663 306.869 289.463 308.369ZM113.463 307.869C113.263 309.169 113.063 308.169 113.063 305.669C113.063 303.169 113.263 302.169 113.463 303.369C113.663 304.669 113.663 306.669 113.463 307.869ZM190.463 307.869C190.263 309.169 190.063 308.169 190.063 305.669C190.063 303.169 190.263 302.169 190.463 303.369C190.663 304.669 190.663 306.669 190.463 307.869ZM40.0631 305.269C42.6631 308.769 41.7631 309.069 38.9631 305.569C37.6631 303.969 36.9631 302.669 37.4631 302.669C37.8631 302.669 39.0631 303.869 40.0631 305.269ZM345.963 306.369C344.363 308.469 341.963 311.069 340.663 312.169L338.363 314.169L340.663 310.869C341.863 309.169 343.363 307.669 343.863 307.669C344.363 307.669 344.763 307.069 344.763 306.369C344.763 304.869 346.763 302.669 348.063 302.669C348.563 302.669 347.563 304.369 345.963 306.369ZM207.463 307.369C207.163 308.369 206.963 307.769 206.963 306.169C206.963 304.469 207.163 303.769 207.463 304.369C207.663 305.069 207.663 306.469 207.463 307.369ZM152.463 313.369C152.163 314.369 151.963 313.769 151.963 312.169C151.963 310.469 152.163 309.769 152.463 310.369C152.663 311.069 152.663 312.469 152.463 313.369ZM201.463 315.869C201.263 317.169 201.063 316.169 201.063 313.669C201.063 311.169 201.263 310.169 201.463 311.369C201.663 312.669 201.663 314.669 201.463 315.869ZM273.463 315.869C273.263 317.169 273.063 316.169 273.063 313.669C273.063 311.169 273.263 310.169 273.463 311.369C273.663 312.669 273.663 314.669 273.463 315.869ZM47.6631 314.969L50.1631 318.169L46.9631 315.269C43.6631 312.169 43.2631 311.669 44.5631 311.769C44.9631 311.769 46.3631 313.169 47.6631 314.969ZM182.463 333.869C182.363 337.869 182.163 334.669 182.163 326.669C182.163 318.669 182.363 315.469 182.463 319.369C182.663 323.369 182.663 329.969 182.463 333.869ZM207.463 317.869C207.263 319.169 207.063 318.369 207.063 316.169C206.963 313.969 207.163 312.969 207.463 313.869C207.663 314.869 207.663 316.669 207.463 317.869ZM214.763 316.869C214.763 318.069 214.463 318.669 214.063 318.269C212.963 317.269 212.863 314.669 213.863 314.669C214.363 314.669 214.763 315.669 214.763 316.869ZM289.463 318.369C289.163 319.369 288.963 318.769 288.963 317.169C288.963 315.469 289.163 314.769 289.463 315.369C289.663 316.069 289.663 317.469 289.463 318.369ZM204.463 325.869C204.263 327.669 204.063 326.269 204.063 322.669C204.063 319.069 204.263 317.669 204.463 319.369C204.663 321.169 204.663 324.169 204.463 325.869ZM109.463 322.369C109.163 323.369 108.963 322.569 108.963 320.669C108.963 318.769 109.163 317.969 109.463 318.869C109.663 319.869 109.663 321.469 109.463 322.369ZM333.363 320.469C331.563 322.069 331.563 322.069 332.763 319.869C333.363 318.569 334.163 317.769 334.563 318.069C334.863 318.469 334.363 319.469 333.363 320.469ZM113.463 330.369C113.263 332.469 113.063 330.969 113.063 327.169C113.063 323.269 113.263 321.669 113.463 323.369C113.663 325.169 113.663 328.369 113.463 330.369ZM207.463 324.369C207.163 325.369 206.963 324.769 206.963 323.169C206.963 321.469 207.163 320.769 207.463 321.369C207.663 322.069 207.663 323.469 207.463 324.369ZM214.763 325.369C214.763 330.869 214.263 330.769 213.363 324.869C212.963 322.269 213.163 320.669 213.763 320.669C214.263 320.669 214.763 322.769 214.763 325.369ZM251.463 339.869C251.263 342.769 251.163 340.669 251.163 335.169C251.163 329.669 251.263 327.269 251.463 329.869C251.663 332.469 251.663 336.969 251.463 339.869ZM327.763 325.969C327.763 326.169 326.563 327.369 325.063 328.769L322.263 331.169L324.663 328.369C326.963 325.869 327.763 325.169 327.763 325.969ZM129.463 332.869C129.263 334.169 129.063 333.369 129.063 331.169C128.963 328.969 129.163 327.969 129.463 328.869C129.663 329.869 129.663 331.669 129.463 332.869ZM190.463 333.369C190.163 334.369 189.963 333.769 189.963 332.169C189.963 330.469 190.163 329.769 190.463 330.369C190.663 331.069 190.663 332.469 190.463 333.369ZM321.763 331.469C321.763 331.869 320.763 332.769 319.563 333.569C317.263 334.969 317.263 334.969 319.163 332.769C321.163 330.569 321.763 330.269 321.763 331.469ZM126.463 336.369C126.163 337.369 125.963 336.769 125.963 335.169C125.963 333.469 126.163 332.769 126.463 333.369C126.663 334.069 126.663 335.469 126.463 336.369ZM129.463 343.369C129.263 344.969 129.063 343.669 129.063 340.669C129.063 337.669 129.263 336.369 129.463 337.869C129.663 339.469 129.663 341.869 129.463 343.369ZM263.763 336.769C263.763 337.269 262.363 337.469 260.763 337.269C256.463 336.769 256.163 336.069 260.263 335.969C262.163 335.869 263.763 336.269 263.763 336.769ZM193.463 342.369C193.163 343.369 192.963 342.769 192.963 341.169C192.963 339.469 193.163 338.769 193.463 339.369C193.663 340.069 193.663 341.469 193.463 342.369ZM182.463 347.869C182.263 349.169 182.063 348.169 182.063 345.669C182.063 343.169 182.263 342.169 182.463 343.369C182.663 344.669 182.663 346.669 182.463 347.869ZM307.763 342.069C307.763 342.269 306.163 343.669 304.263 345.069C302.363 346.569 300.763 347.369 300.763 346.769C300.763 346.269 302.263 344.969 304.063 343.769C307.463 341.569 307.763 341.469 307.763 342.069ZM80.2631 346.469C79.6631 347.069 76.7631 344.669 76.7631 343.569C76.7631 343.069 77.6631 343.469 78.7631 344.369C79.8631 345.269 80.4631 346.269 80.2631 346.469ZM90.7631 348.769C92.4631 350.069 92.5631 350.469 91.2631 349.769C87.9631 348.069 86.1631 346.669 87.2631 346.669C87.8631 346.669 89.3631 347.669 90.7631 348.769ZM288.763 354.669C286.363 356.169 285.163 355.769 287.363 354.269C288.363 353.469 289.463 353.069 289.763 353.269C289.963 353.569 289.563 354.169 288.763 354.669ZM126.463 366.669C127.563 367.369 127.663 367.569 126.763 367.269C125.963 367.069 123.563 366.269 121.563 365.569C119.463 364.869 117.763 363.969 117.763 363.469C117.763 362.669 123.263 364.669 126.463 366.669ZM265.263 365.569C264.663 366.069 263.163 366.669 261.763 367.069C259.663 367.569 259.763 367.369 262.263 366.169C265.763 364.469 266.463 364.369 265.263 365.569ZM234.763 374.669C233.963 375.169 232.563 375.669 231.763 375.669C230.463 375.669 230.463 375.569 231.763 374.669C232.563 374.169 233.963 373.669 234.763 373.669C236.063 373.669 236.063 373.769 234.763 374.669ZM175.763 377.469C175.763 377.869 173.963 378.069 171.763 377.869C169.563 377.669 167.763 377.269 167.763 377.069C167.763 376.869 169.563 376.669 171.763 376.669C173.963 376.669 175.763 376.969 175.763 377.469ZM198.063 378.369C196.263 378.569 193.263 378.569 191.563 378.369C189.763 378.169 191.163 377.969 194.763 377.969C198.363 377.969 199.763 378.169 198.063 378.369ZM207.563 378.369C206.563 378.569 204.763 378.569 203.563 378.369C202.263 378.169 203.063 377.969 205.263 377.969C207.463 377.869 208.463 378.069 207.563 378.369Z" fill="url(#paint0_linear_4_2)"/>
<defs>
<linearGradient id="paint0_linear_4_2" x1="0" y1="387.449" x2="0" y2="0" gradientUnits="userSpaceOnUse">
<stop stop-color="#E8C36B"/>
<stop offset="0.35" stop-color="#C9982E"/>
<stop offset="0.55" stop-color="#F4E08A"/>
<stop offset="0.8" stop-color="#B6831F"/>
<stop offset="1" stop-color="#8C6212"/>
</linearGradient>
</defs>
</svg>
