<svg width="1114" height="258" viewBox="0 0 1114 258" fill="none" xmlns="http://www.w3.org/2000/svg">
<path fill-rule="evenodd" clip-rule="evenodd" d="M630.5 1.90418C622.3 4.30419 612.1 9.70419 602.5 16.6042C598.1 19.7042 592.6 23.7042 590.2 25.3042C579.7 32.4042 558.7 54.6042 538.2 80.2042L528 92.9042L521.2 89.8042C512.6 85.8042 497.5 84.8042 487 87.4042C478.5 89.6042 462.2 97.6042 454 103.604C450.4 106.304 445 109.604 442 111.104C438.9 112.604 432.9 115.804 428.6 118.404C424.4 120.904 420.6 123.004 420.3 123.004C420.1 123.004 418 124.304 415.7 125.904C404.8 133.304 365.1 153.604 355 156.904C339.7 161.804 327.7 163.204 323.5 160.404C317.5 156.404 318.1 148.804 325.7 134.004C332.1 121.404 332.7 120.904 337.5 122.004C345.3 123.804 358.2 122.404 366.8 118.804C374.7 115.404 384.9 107.604 387.4 103.004C390.5 97.2042 390.6 95.1042 387.9 91.6042C381.9 83.9042 367.8 83.8042 351.7 91.4042C345.2 94.4042 338.4 99.1042 323.5 110.904C320.8 113.104 312.7 118.504 305.5 122.904C287.6 133.904 285.1 135.404 280 138.104C277.5 139.404 272.4 142.304 268.5 144.504C240.4 160.704 201.9 172.904 195.9 167.404C190.2 162.304 202.1 140.904 223.5 118.004C225.8 115.504 231.6 109.304 236.4 104.204C242.7 97.4042 245 94.3042 244.8 92.7042C244.3 89.1042 243.2 88.2042 238.7 87.6042C226.3 85.7042 221 84.5042 216.8 82.3042C211.3 79.6042 211.1 79.0042 214.4 74.7042C218.6 69.2042 223 60.1042 223 57.1042C223 54.8042 222.2 53.7042 219.3 52.0042C208.9 45.9042 196.9 58.7042 199.8 72.8042C201.1 79.1042 200.7 80.0042 194 85.1042C180 96.0042 129.5 130.104 125.2 131.704C124.3 132.104 122.2 133.304 120.5 134.504C118.9 135.704 114.4 138.304 110.5 140.204C106.7 142.204 99.7 145.804 95 148.204C71.7 160.304 49.2 166.904 31.5 166.904C20.6 167.004 15.4 164.704 14.4 159.504C10.5 138.504 38.6 103.604 67.3 93.9042C74 91.7042 83.9 91.2042 88.3 92.9042C93.1 94.8042 93.7 98.0042 90.4 104.004C87.6 109.004 87.5 109.104 89.4 110.604C92 112.404 94.6 110.804 97.7 105.404C100.6 100.504 100.6 96.5042 97.8 92.4042C94.2 87.1042 90.6 85.6042 80.4 85.2042C55.5 84.1042 26.4 100.204 9.9 124.204C2.9 134.504 0 141.704 0 149.204C0 169.604 17.2 177.904 48.1 172.504C61.6 170.204 85.7 161.604 97.5 155.004C99.5 153.904 101.3 153.004 101.5 153.104C102.3 153.104 134.4 134.804 135 134.004C135.3 133.604 137.7 132.004 140.4 130.504C149.5 125.204 188.4 97.8042 196.6 91.0042L204.6 84.2042L207.1 86.1042C210.6 88.6042 218.8 91.7042 224.3 92.5042C226.9 92.9042 229 93.4042 229 93.6042C229 93.8042 224.2 98.8042 218.4 104.704C207.7 115.504 196.4 128.404 192 135.004C190.7 136.904 189.3 138.704 188.9 139.004C187.7 139.904 184.2 147.504 182.5 153.204C180.8 158.604 180.8 159.104 182.4 163.404C185.5 171.504 192.8 176.004 203 176.004C210.9 176.004 228.6 171.004 241.5 165.104C243.7 164.104 246.6 162.904 248 162.504C251.2 161.504 276.9 148.204 283.5 144.204C286.3 142.504 290.5 140.004 293 138.604C295.5 137.304 300.6 134.104 304.5 131.604C312.7 126.104 313.5 126.004 311 130.204C307.8 135.904 305.7 144.704 306.5 149.804C309.4 169.304 329.8 174.104 360 162.304C374.1 156.804 399.7 143.604 415 134.004C415.8 133.504 419.5 131.204 423.2 128.904C426.8 126.604 431.3 123.804 433.1 122.704L436.4 120.604L433.1 125.304C427.4 133.604 424.6 140.804 424.6 147.504C424.6 154.604 426.2 158.204 431.2 162.304C438.8 168.404 456.2 165.704 468.2 156.704C470 155.304 473.9 152.804 476.8 151.104C482.1 148.004 494.3 138.704 498.8 134.204C502.3 130.804 503.2 131.604 500.9 136.004C498.1 141.404 496 149.504 496 155.304C496 169.304 508.5 175.604 525.2 169.904C533.8 167.004 552.6 157.304 564 149.904C567 147.904 575.4 142.404 582.7 137.704C589.9 132.904 596.1 128.604 596.5 128.004C596.8 127.504 597.5 127.004 597.9 127.004C598.4 127.004 597.6 129.804 596.2 133.204C594.3 138.004 593.6 141.304 593.6 147.004C593.5 156.604 595.5 160.304 602.9 164.204C613.1 169.504 628.1 167.304 649.4 157.104C660.6 151.804 693.9 133.004 705.5 125.504C708.3 123.704 716.6 118.304 724 113.504C746.5 98.8042 756.1 93.4042 754.4 96.2042C753.4 97.7042 752.1 99.5042 750 101.804C748.2 103.704 734.2 121.404 720.4 139.004C705 158.704 703.8 161.304 708.2 164.404C714 168.504 716.8 166.704 735.9 147.304C750.5 132.304 758.2 125.904 776 113.904C788.9 105.204 803 98.3042 803 100.604C803 101.804 798.9 107.204 792 115.104C783.7 124.704 779.6 129.804 776 135.004C774.7 136.904 773.2 138.804 772.8 139.104C772.3 139.404 770.6 142.504 769 145.904C760.9 163.004 770 171.704 790.6 166.504C802.8 163.504 826.5 151.204 847.8 136.904C855.1 132.004 861.3 128.004 861.7 128.004C862 128.004 861.6 129.004 860.8 130.204C858 134.404 855.6 143.504 855.6 149.604C855.6 154.604 856.1 156.304 858.6 160.004C871.7 179.204 910.7 170.204 960.8 136.304C967.5 131.804 973 128.404 973 128.804C973 129.204 971.9 132.204 970.5 135.504C964 151.204 970.3 165.304 985 167.804C992.4 169.104 1005.3 167.304 1016 163.504C1024.3 160.504 1053.9 146.204 1059.2 142.704C1063.5 139.804 1077.9 131.204 1085.3 127.104C1092.5 123.104 1100.3 121.004 1107.6 121.004C1111.6 121.004 1113.2 120.604 1113.6 119.504C1114.8 116.404 1112.1 115.004 1104.9 115.004C1096 115.004 1088.5 117.604 1075.6 125.204C1070.1 128.504 1063.4 132.304 1060.8 133.604C1058.3 134.904 1054.5 137.104 1052.5 138.404C1045.8 143.004 1020.6 154.704 1011.6 157.504C988.1 164.604 979.6 162.304 981.4 149.404C982.5 141.004 993.1 120.604 995.7 121.504C1009.7 126.404 1036.5 116.804 1045.6 103.504C1049.4 98.0042 1049.4 94.4042 1045.6 90.3042C1042.5 86.9042 1041.7 86.6042 1035.6 86.2042C1020.8 85.2042 1005.5 92.6042 988.5 108.804C984.6 112.504 979.9 116.404 978 117.404C976.1 118.504 967.8 123.804 959.5 129.304C919.8 155.804 882.2 169.504 871.9 161.204C863 153.904 877.5 124.004 897.9 107.704C907.2 100.304 920.7 94.0042 927.2 94.0042C933.8 94.0042 931.8 103.104 923.2 111.904C921.5 113.704 922.1 115.404 924.7 115.804C926.1 116.004 928.4 114.204 932.3 110.004C937.6 104.304 938 103.504 938 99.0042C938 94.7042 937.6 93.9042 934.3 91.0042L930.6 87.7042L921.1 88.2042C905.5 89.1042 894.4 94.3042 878.4 108.604C874.5 112.104 870.9 114.604 870.5 114.204C870 113.804 870 114.104 870.4 114.704C871 115.904 870.4 116.204 868.4 115.904C868 115.904 867.4 116.304 867.1 116.804C866.8 117.304 864.9 118.504 863 119.504C861.1 120.504 855.7 123.904 851 127.004C846.3 130.104 839.6 134.404 836 136.504C832.4 138.604 827.7 141.504 825.5 142.904C822 145.104 818.2 147.204 808 152.504C806.6 153.204 803.5 154.604 801 155.504C798.5 156.404 794.4 158.104 791.8 159.304C789.2 160.404 785.1 161.404 782.8 161.404C778.9 161.504 778.5 161.304 778.2 159.004C777.9 155.904 784.3 146.004 798.3 127.904C816 105.204 818.2 101.304 816 96.1042C812.9 88.6042 798.7 92.1042 777.8 105.304C764.8 113.504 756.4 119.304 750 124.404C742.2 130.704 739.7 132.204 742.8 128.804C744 127.504 745 126.004 745 125.504C745 125.104 746.7 122.704 748.8 120.304C764 102.204 769.4 91.6042 765.5 87.6042C760.9 83.0042 747.6 89.8042 698.8 121.704C693.5 125.204 688.9 128.004 688.7 128.004C688.4 128.004 681.3 131.904 672.9 136.804C653.8 147.604 643.1 152.904 631.5 157.004C604 166.704 598 155.004 615.9 126.204L618.5 122.004L626.5 122.604C639.9 123.604 651.9 120.204 663.8 112.104C682.7 99.3042 680.5 85.9042 659.5 85.7042C645.6 85.6042 632.3 91.8042 616.2 105.804C604 116.504 594.6 122.904 561.5 143.004C524.9 165.304 507 170.704 507 159.604C507 148.904 522.5 119.604 536.6 103.504C540.4 99.1042 544.3 96.1042 550.7 92.6042C596.7 67.2042 647.9 30.6042 655.6 17.4042C663.3 4.20419 650.3 -3.89582 630.5 1.90418ZM650.3 8.10418C651.9 10.6042 649.4 15.6042 643.5 21.4042C636.2 28.7042 630.2 34.0042 629.3 34.0042C628.8 34.0042 626.7 35.6042 624.5 37.6042C619.2 42.2042 585.8 64.4042 564 77.8042C549.3 86.7042 549.2 86.8042 551 84.3042C569.6 58.9042 603.9 25.0042 621.9 14.3042C634.6 6.70419 647.6 3.90418 650.3 8.10418ZM608.8 15.4042C607.3 16.7042 606.3 18.1042 606.6 18.4042C606.8 18.7042 606.7 18.8042 606.4 18.5042C606 18.3042 605.2 18.6042 604.4 19.3042C601.4 22.0042 600.2 22.9042 599.9 22.6042C599.7 22.4042 598.6 23.2042 597.5 24.3042C596.4 25.4042 596.2 25.9042 597 25.5042C598.2 24.8042 598.3 24.9042 597.3 26.2042C596.6 27.0042 596.3 28.0042 596.7 28.4042C597.1 28.8042 596.7 28.8042 595.8 28.5042C595 28.2042 593.6 28.5042 592.9 29.3042C592.1 30.0042 590.9 30.5042 590.2 30.2042C589.1 29.9042 588.5 31.2042 588.9 33.3042C589 33.8042 588.6 33.9042 588 33.5042C587.5 33.2042 587 33.4042 587 34.0042C587 35.4042 584.9 37.6042 583.5 37.7042C583 37.7042 582 38.7042 581.4 39.8042C580.7 41.3042 580 41.6042 579.3 40.9042C578.5 40.1042 578.2 40.2042 578.3 41.1042C578.4 44.4042 577.9 46.1042 577 45.5042C576.5 45.2042 575.4 45.7042 574.5 46.7042C568.7 53.4042 566.9 55.3042 567.6 54.0042C568 53.2042 566.6 54.2042 564.6 56.2042C562.6 58.3042 560.5 60.0042 559.9 60.0042C559.4 60.0042 559.1 60.4042 559.4 60.8042C559.6 61.2042 558.9 61.7042 557.7 61.7042C555.8 61.9042 555.9 61.7042 558.5 59.5042C560 58.1042 561 57.0042 560.7 57.0042C560.4 57.0042 561.4 55.6042 563 53.9042C564.9 51.8042 566.3 51.0042 567.2 51.6042C568.3 52.2042 568.3 52.1042 567.2 50.8042C566.2 49.5042 566.3 49.0042 567.7 47.9042C569.2 46.7042 569.3 46.7042 568.6 48.0042C568.2 48.8042 569.1 48.0042 570.7 46.2042C572.2 44.4042 574.1 43.0042 574.8 43.0042C575.5 43.0042 575.9 42.7042 575.7 42.2042C575.5 41.8042 576.1 40.7042 577.2 39.7042C578.2 38.8042 579 38.3042 579 38.7042C579 39.0042 580.1 38.0042 581.5 36.4042C582.9 34.8042 584.4 33.5042 584.9 33.5042C585.5 33.5042 587.5 31.6042 589.5 29.3042C591.4 27.0042 594.7 24.1042 596.8 22.8042C598.8 21.6042 601.2 20.0042 602 19.3042C604.4 17.4042 610.4 13.2042 611 13.1042C611.3 13.1042 610.3 14.1042 608.8 15.4042ZM208 55.5042C207.3 56.3042 206.3 57.0042 205.8 57.0042C205.2 57.0042 205.3 56.3042 206 55.5042C206.7 54.7042 207.7 54.0042 208.2 54.0042C208.8 54.0042 208.7 54.7042 208 55.5042ZM598.5 59.0042C598.2 59.5042 596.9 60.5042 595.7 61.1042C593.8 62.0042 593.8 61.9042 596 60.1042C598.8 57.8042 599.4 57.5042 598.5 59.0042ZM548.6 72.3042C547.2 73.6042 546.4 75.0042 546.8 75.4042C547.2 75.8042 547 76.0042 546.3 75.8042C545.7 75.6042 544.4 76.4042 543.6 77.5042C542.8 78.6042 542 79.2042 542 78.8042C542 77.6042 549.1 70.0042 550.2 70.0042C550.7 70.0042 550 71.1042 548.6 72.3042ZM580.6 71.2042C581 71.9042 581 72.2042 580.5 71.8042C580.1 71.4042 579.1 71.5042 578.3 72.1042C577.5 72.9042 577 72.9042 577 72.2042C577 71.6042 577.6 70.9042 578.3 70.7042C578.9 70.4042 579.6 70.1042 579.7 70.1042C579.8 70.0042 580.2 70.6042 580.6 71.2042ZM200.6 83.9042C200.3 84.4042 199 85.0042 197.8 85.3042C195.6 85.9042 195.6 85.8042 197.4 84.5042C199.6 82.8042 201.4 82.5042 200.6 83.9042ZM536.6 88.5042C535.7 89.9042 535.2 91.5042 535.5 92.0042C535.8 92.5042 535.5 92.7042 534.7 92.4042C533.9 92.1042 532.5 92.6042 531.6 93.5042C528.4 96.8042 530.1 92.9042 533.6 89.0042C537.6 84.6042 539.3 84.3042 536.6 88.5042ZM60.6 89.7042C59.5 90.8042 53 92.8042 53.6 91.9042C53.9 91.4042 55.5 90.6042 57.3 90.1042C61.5 88.9042 61.4 88.9042 60.6 89.7042ZM481 91.9042C480.2 92.4042 479.2 92.7042 478.9 92.7042C478.5 92.6042 477.3 93.3042 476.2 94.3042C475 95.4042 473.9 95.7042 473.6 95.1042C473.1 94.3042 475.9 92.7042 478.2 92.5042C478.5 92.5042 479.2 92.2042 479.6 91.7042C480 91.3042 480.8 91.0042 481.4 91.0042C482 91.0042 481.8 91.5042 481 91.9042ZM380 93.5042C383.8 95.5042 383.8 96.8042 379.7 102.204C375 108.404 362.8 114.404 351.5 116.104C345.6 116.904 342.3 117.004 340.8 116.304C338.6 115.304 338.7 115.104 344.5 109.404C354 100.004 364.7 93.8042 373.5 92.7042C375.2 92.5042 376.6 92.2042 376.8 92.1042C377 92.1042 378.4 92.7042 380 93.5042ZM520.2 96.6042C521.8 97.4042 523 98.5042 522.8 98.9042C521.3 102.904 507 117.604 494.6 128.004C490.3 131.604 486.3 135.004 485.6 135.504C484.5 136.604 474.5 143.904 467.1 149.104C455.6 157.204 443.7 161.004 439.1 158.104C436.8 156.604 438.2 147.304 441.8 139.504C447.4 127.604 465 108.604 477.2 101.204C492 92.3042 508.5 90.5042 520.2 96.6042ZM666.5 93.0042C670.2 94.4042 670.5 96.3042 667.5 100.804C664.5 105.404 652.7 112.104 643.7 114.504C638.1 116.004 626.4 116.704 625.4 115.704C624.4 114.704 636.8 102.404 642.3 98.8042C651.4 93.0042 660.6 90.8042 666.5 93.0042ZM1038.4 93.0042C1048.2 96.7042 1029.1 112.904 1011.5 115.904C1006 116.804 1000.4 116.704 999.4 115.804C998.8 115.204 1010.9 103.504 1015.8 99.9042C1020.7 96.3042 1030.4 92.1042 1033.7 92.0042C1034.9 92.0042 1037 92.4042 1038.4 93.0042ZM906 93.5042C906 93.7042 905 94.5042 903.8 95.1042C901.7 96.2042 901.6 96.2042 902.9 94.7042C904.2 93.1042 906 92.4042 906 93.5042ZM345.9 97.4042C344.5 98.7042 342.4 100.104 341.2 100.404C340 100.804 339.2 101.604 339.5 102.104C339.9 102.604 339.4 103.004 338.6 103.004C337.7 103.004 337 103.704 337 104.604C337 105.504 337.5 105.804 338.2 105.404C338.9 105.004 339 105.104 338.6 105.804C338.2 106.404 337.3 106.704 336.5 106.404C335.8 106.104 334.3 106.304 333.3 107.004C331.7 108.004 331.8 108.004 334 107.604C335.4 107.304 335.9 107.304 335.2 107.604C334.6 107.904 334.2 108.604 334.5 109.004C334.8 109.504 334.2 109.704 333.2 109.504C331.8 109.304 330.5 110.504 328.5 113.604C325.2 118.804 325.4 118.704 324.8 115.604C324.4 113.904 324.7 113.304 325.7 113.704C326.4 114.004 327 113.604 327 112.804C327 112.004 329.6 109.004 332.8 106.204C340.6 99.2042 352.7 91.1042 345.9 97.4042ZM472.6 96.2042C473 96.8042 472.9 97.0042 472.3 96.7042C471.7 96.3042 470.3 96.8042 469.2 97.8042C463.8 102.404 463 102.904 463 102.304C463 101.904 462.3 102.504 461.4 103.604C460.6 104.604 460.1 104.804 460.5 104.004C460.8 103.204 460.3 103.504 459.4 104.704C458.5 106.004 457.2 107.004 456.4 107.004C455.7 107.004 454.8 107.404 454.5 108.004C454.1 108.604 454.6 108.704 455.7 108.304C456.7 108.004 457.2 108.004 456.8 108.504C456.4 108.904 454.9 109.404 453.6 109.404C452.2 109.504 450.3 110.304 449.3 111.104C446.1 113.904 444.4 114.504 446.5 112.104C448.7 109.504 457.9 102.904 464.6 99.0042C466.9 97.6042 469.2 96.2042 469.6 95.7042C470.7 94.7042 471.8 94.8042 472.6 96.2042ZM43.4 97.3042C43.1 98.1042 41.1 99.7042 39 100.904C36.8 102.104 35 103.404 35 103.604C35 103.904 35.5 103.804 36 103.504C36.6 103.204 37 103.404 37 104.104C37 104.804 36.2 105.004 34.9 104.704C33.3 104.304 33.1 104.404 34.1 105.604C34.7 106.404 34.8 107.004 34.3 107.004C33.8 107.004 32.4 107.904 31.2 109.004C30 110.204 29 110.804 29 110.404C29 110.004 27.7 110.904 26 112.504C24.4 114.004 23.3 115.604 23.5 116.004C23.7 116.404 22.9 116.604 21.7 116.504C20.5 116.304 19.6 115.704 19.8 115.104C20.2 113.104 26.4 108.004 27.8 108.504C28.5 108.804 28.9 108.604 28.6 108.104C27.8 106.804 39.2 97.7042 43.7 96.1042C43.8 96.0042 43.7 96.6042 43.4 97.3042ZM529.6 97.2042C530 97.9042 529.9 98.0042 529.2 97.6042C528.2 97.0042 527.6 98.0042 527.8 100.004C527.8 100.304 526.9 100.704 525.8 100.704C523.8 100.904 523.8 100.804 526 98.4042C528.7 95.6042 528.7 95.6042 529.6 97.2042ZM630.4 98.9042C628.9 100.604 627.2 101.604 626.7 101.304C626.2 101.004 625.9 101.304 626.2 102.104C626.7 103.504 622.3 107.704 621.4 106.704C620.4 105.704 617.2 109.304 617.7 110.604C618.3 112.204 616.4 112.504 615.5 111.004C615.1 110.404 617.5 107.504 620.6 104.504C624.7 100.704 626.6 99.4042 627.2 100.304C627.9 101.404 628.3 100.804 627.8 99.4042C627.5 98.9042 631.7 96.2042 632.8 96.0042C633 96.0042 631.9 97.3042 630.4 98.9042ZM1001.6 101.504C998.9 104.004 996.4 106.004 995.8 106.004C995.3 106.004 995.2 106.504 995.6 107.204C996 107.804 995.9 108.004 995.2 107.604C994.6 107.304 992.4 108.704 990.3 110.704L986.6 114.504L989.1 111.004C991.2 108.104 1004.5 97.1042 1005.9 97.0042C1006.1 97.0042 1004.2 99.0042 1001.6 101.504ZM892.9 100.304C892 101.004 891 102.504 890.6 103.804C889.9 106.004 888.9 106.404 886 106.004C885.2 105.904 884.8 106.104 885.2 106.604C885.6 107.004 885.5 107.904 884.9 108.704C883.5 110.304 881.6 110.504 882.6 108.804C883 108.104 882.9 108.004 882.2 108.404C881.6 108.804 881.3 109.704 881.6 110.404C881.9 111.204 880.6 113.004 878.6 114.704C876.6 116.204 875 117.904 875 118.304C875 118.804 873.6 120.304 872 121.704C870.3 123.004 869.2 124.604 869.5 125.104C869.9 125.604 869.4 125.704 868.6 125.404C867.4 125.004 867 125.404 867 127.004C867 128.104 866.6 128.804 866 128.504C865.1 127.904 864.6 129.304 864.9 131.304C865 131.804 864.6 131.904 864.1 131.604C863.6 131.304 862.7 132.404 862 134.004C861.3 135.704 860.5 136.904 860.3 136.604C859.6 135.904 864.9 126.204 866.8 124.804C867.8 124.104 870.7 120.804 873.3 117.504C879.5 109.604 891.4 98.9042 893.9 99.0042C894.2 99.0042 893.8 99.6042 892.9 100.304ZM522.7 104.504C522 105.904 521.1 107.004 520.7 107.004C520.2 107.004 520.2 107.504 520.6 108.204C521 108.904 520.9 109.004 520.2 108.604C519.5 108.204 519 108.504 519 109.304C519 110.004 517.8 111.504 516.3 112.604C511.2 116.304 510.5 116.304 514.2 112.704C516.2 110.704 519.1 107.404 520.6 105.504C523.7 101.404 524.2 101.104 522.7 104.504ZM40 106.504C40 106.704 39.2 107.404 38.2 107.904C36.8 108.604 36.3 108.504 36.3 107.604C36.3 107.004 37.2 106.304 38.2 106.304C39.2 106.204 40 106.304 40 106.504ZM778 109.004C775.6 110.504 774.4 110.104 776.6 108.604C777.6 107.804 778.7 107.404 779 107.604C779.2 107.904 778.8 108.504 778 109.004ZM215 112.504C214.3 113.304 213.4 114.004 212.9 114.004C212.4 114.004 212.8 113.204 213.8 112.204C215.8 110.004 216.9 110.304 215 112.504ZM614.4 111.604C615.3 111.904 616 112.704 616 113.204C616 113.804 615.3 114.004 614.5 113.704C613.7 113.304 612.1 114.304 610.6 116.004C607.8 119.404 607.3 119.604 607.3 117.504C607.3 116.704 607.7 116.304 608.2 116.604C608.6 116.904 609 116.404 609 115.504C609 114.604 609.4 114.104 609.9 114.404C610.4 114.704 611 114.104 611.3 113.004C611.9 110.804 612.1 110.704 614.4 111.604ZM768.6 114.504C765.6 116.904 761.5 118.504 762.6 116.904C762.9 116.404 763.7 116.004 764.3 116.004C765 116.004 766.6 115.104 768 114.004C771.6 111.204 772.1 111.604 768.6 114.504ZM714 115.004C711.6 116.504 710.4 116.104 712.6 114.604C713.6 113.804 714.7 113.404 715 113.604C715.2 113.904 714.8 114.504 714 115.004ZM323.6 115.204C324 115.904 324 116.204 323.5 115.804C323.1 115.404 320.8 116.404 318.4 118.104C312.8 121.904 312.7 121.204 318.2 117.104C323.1 113.504 322.7 113.604 323.6 115.204ZM438.5 115.604C435.7 117.704 433 119.204 433 118.504C433 117.904 439.2 114.004 440 114.004C440.3 114.104 439.6 114.804 438.5 115.604ZM19 119.504C19 120.304 18 121.604 16.8 122.504C15.5 123.304 14.6 124.404 14.8 124.804C14.9 125.204 14.4 125.504 13.8 125.504C13.1 125.604 12.6 126.104 12.8 126.804C12.9 127.504 12.5 128.004 11.9 128.004C11.4 128.004 11.2 128.404 11.5 129.004C11.8 129.504 11.3 130.004 10.4 130.004C9.4 130.004 9 130.304 9.3 130.704C10.1 131.404 8.2 134.004 6.9 134.004C6.4 134.004 7.1 132.404 8.3 130.404C9.5 128.404 11.2 125.704 12 124.304C12.9 122.804 14.4 121.604 15.4 121.404C16.4 121.304 17.5 120.804 17.8 120.404C18.2 120.004 17.7 120.004 16.8 120.304C14.8 121.004 14.4 120.004 16.2 118.204C17.5 116.904 19 117.504 19 119.504ZM508.2 119.304C507 120.604 506.2 122.004 506.5 122.304C506.8 122.704 506.7 122.804 506.3 122.504C506 122.204 504.7 122.804 503.6 123.704C502.4 124.704 503.3 123.504 505.5 121.204C507.6 118.904 509.6 117.004 509.9 117.004C510.1 117.004 509.4 118.004 508.2 119.304ZM604.4 118.804C600.8 122.004 589 130.104 589 129.304C589 128.904 588.4 129.204 587.7 130.004C587 130.804 585.8 131.604 585 131.804C584.2 132.004 584.9 131.004 586.5 129.604C589.3 127.204 590 126.904 591.6 127.104C592 127.104 592.6 126.704 592.9 126.204C593.5 125.104 605.1 117.004 605.9 117.004C606.2 117.004 605.5 117.804 604.4 118.804ZM983.9 120.404C983.2 121.804 982.1 123.004 981.3 123.004C980.3 123.004 980.6 122.104 982.1 120.004C984.8 116.504 985.6 116.704 983.9 120.404ZM320.6 121.204C319.7 121.704 319 122.804 319 123.504C319 124.304 318.3 125.004 317.5 125.004C316.2 125.004 316.4 124.404 318.1 122.004C319.3 120.404 320.8 119.304 321.3 119.704C321.8 120.004 321.5 120.704 320.6 121.204ZM207.4 121.704C207.8 122.704 207.8 123.104 207.4 122.704C207 122.304 206.1 122.804 205.4 123.804C204 125.704 203.9 123.604 205.3 121.204C206.4 119.604 206.7 119.704 207.4 121.704ZM606.4 121.804C605.9 122.204 603.9 125.104 602 128.204C600.1 131.404 598.4 133.804 598.2 133.604C597.8 133.104 600.9 126.804 601.9 126.004C602.3 125.704 603.4 124.204 604.4 122.704C605.3 121.104 606.4 120.104 606.8 120.504C607.2 120.804 607 121.404 606.4 121.804ZM863 122.104C861.6 123.204 859.4 125.004 858.1 126.204C855.8 128.404 852.5 129.604 853.6 127.904C853.9 127.404 854.5 127.204 855 127.504C855.5 127.804 856.3 127.404 856.7 126.504C857.5 125.104 863.9 120.104 865 120.104C865.3 120.104 864.4 121.004 863 122.104ZM971.4 124.904C970.4 125.904 969.1 126.504 968.7 126.304C968.2 126.004 968.7 125.204 969.7 124.404C972.4 122.404 973.6 122.704 971.4 124.904ZM506.2 133.004C503.7 138.004 501.5 141.804 501.2 141.604C500.5 140.804 509.4 124.004 510.5 124.004C510.6 124.004 508.7 128.104 506.2 133.004ZM980 126.004C979.4 127.104 978.5 128.004 978 128.004C977.5 128.004 976.2 129.704 975.1 131.704C974 133.804 973.1 135.004 973 134.404C973 132.804 978.8 124.004 980 124.004C980.8 124.004 980.7 124.604 980 126.004ZM435.3 127.804C435 129.004 434.4 130.004 433.9 130.004C433.4 130.004 433.6 128.904 434.2 127.504C435.5 124.504 436.2 124.704 435.3 127.804ZM785.1 128.404C783.8 129.804 783.1 131.304 783.4 131.904C783.8 132.604 783.5 132.804 782.6 132.404C781.6 132.004 780.6 132.904 779.5 134.904C778.7 136.604 777.7 138.004 777.4 138.004C775.8 138.004 784.6 126.204 786.4 126.104C786.9 126.004 786.3 127.104 785.1 128.404ZM201.8 128.204C201.6 128.804 200.6 129.404 199.6 129.604C198.2 129.804 198.1 129.604 199.1 128.404C200.5 126.704 202.3 126.504 201.8 128.204ZM497.7 128.804C496.7 129.804 496.3 131.104 496.7 131.604C497.1 132.104 496.8 131.904 496 131.304C494.8 130.204 494.9 129.804 496.6 128.504C499.2 126.504 499.6 126.604 497.7 128.804ZM299.4 129.904C298.4 130.904 297.3 131.504 297 131.304C296.7 131.004 297.4 130.204 298.4 129.404C301.2 127.404 301.7 127.704 299.4 129.904ZM1071.5 131.004C1071.2 131.504 1070.1 132.004 1069.2 132.004C1067.7 132.004 1067.7 131.804 1069 131.004C1071 129.704 1072.3 129.704 1071.5 131.004ZM196 134.504C194.7 135.904 194.1 137.004 194.6 137.004C195.1 137.004 194.6 137.704 193.6 138.504C192.5 139.304 192 140.004 192.4 140.004C192.9 140.004 192.3 140.804 191.2 141.704C190.1 142.704 188.2 146.404 186.9 150.004C184.2 157.804 182.3 160.504 184.5 153.504C185.3 150.704 186 148.204 186 147.904C186 147.304 194.3 134.604 196.2 132.204C196.8 131.504 197.5 131.204 197.8 131.504C198.1 131.804 197.3 133.104 196 134.504ZM432.1 133.204C431.6 134.504 430.5 136.804 429.6 138.504C428.7 140.104 428 143.604 428 146.204C428 148.904 427.6 151.004 427.2 151.004C425.9 151.004 427.5 139.904 429.4 135.204C431.2 130.904 433.7 129.104 432.1 133.204ZM312 135.904C311.5 137.004 310.6 140.304 310.1 143.204C309.4 147.404 309.2 147.804 309.1 145.104C309 141.104 310.9 134.004 312.2 134.004C312.7 134.004 312.6 134.904 312 135.904ZM122.4 137.504C120.9 139.804 119.1 141.204 120.5 139.004C121.5 137.404 119.4 137.804 118 139.504C117.3 140.304 115.8 141.004 114.6 141.004C112.9 141.004 112.8 141.204 114 142.004C115.3 142.904 115.3 143.004 114 143.104C113.2 143.204 112.2 143.204 111.8 143.104C111.3 143.104 111 143.404 111 143.904C111 144.904 107.1 146.604 105.8 146.204C105.3 146.104 105 146.504 105 147.204C105 147.804 104.7 148.104 104.4 147.704C104.1 147.404 102.3 148.004 100.4 149.104C98.5 150.104 97 150.604 97 150.204C97 149.804 100 148.004 103.8 146.104C107.5 144.204 111.2 142.104 112 141.404C112.8 140.704 114.2 140.004 115 139.804C115.8 139.604 116.7 139.204 117 138.904C117.4 138.404 122.3 135.704 123.8 135.104C123.9 135.004 123.3 136.104 122.4 137.504ZM4.9 139.604C4.3 141.204 3.4 145.004 2.9 148.004L2.1 153.504L2.5 147.504C2.8 141.604 4.6 135.204 5.6 136.204C5.8 136.504 5.5 138.004 4.9 139.604ZM400.5 137.604C399.4 138.404 398.6 139.404 398.7 139.804C398.8 140.204 397.7 140.604 396.3 140.704C394.1 140.804 394.2 140.604 397.6 138.404C402 135.704 403.5 135.304 400.5 137.604ZM596.7 141.704C596.4 142.704 596.2 142.104 596.2 140.504C596.2 138.804 596.4 138.104 596.7 138.704C596.9 139.404 596.9 140.804 596.7 141.704ZM1058 139.104C1058 139.604 1057.7 139.904 1057.2 139.604C1056.2 139.004 1051.4 141.604 1051.8 142.704C1051.9 143.104 1051.1 143.604 1050 143.604C1047.2 143.804 1047.4 143.504 1052.3 140.604C1056.9 137.804 1058 137.504 1058 139.104ZM723.2 139.704C722.5 140.004 721.3 141.504 720.5 143.104C719.6 144.704 718.5 146.004 717.9 146.004C717.4 146.004 718.1 144.404 719.6 142.504C721 140.604 722.7 139.004 723.4 139.104C724.1 139.104 724 139.404 723.2 139.704ZM733 141.504C732.3 142.404 731.5 142.804 731.2 142.504C730.9 142.304 731.3 141.404 732 140.504C732.7 139.604 733.5 139.204 733.8 139.504C734.1 139.704 733.7 140.604 733 141.504ZM970.7 145.704C970.4 146.704 970.2 146.104 970.2 144.504C970.2 142.804 970.4 142.104 970.7 142.704C970.9 143.404 970.9 144.804 970.7 145.704ZM665.6 144.504C664.5 145.304 663.2 146.004 662.6 146.004C662.1 146.004 662.5 145.304 663.6 144.504C664.6 143.704 666 143.104 666.5 143.104C667.1 143.104 666.6 143.704 665.6 144.504ZM1046.9 145.404C1046.7 145.604 1045.4 146.104 1044 146.404L1041.5 147.104L1044 145.604C1046.1 144.404 1048.2 144.204 1046.9 145.404ZM561.7 146.504C561.7 147.304 561.3 147.704 560.9 147.404C560.5 147.204 559.9 147.604 559.7 148.204C559.3 149.004 559.1 148.904 559.1 147.804C559 146.904 559.6 145.904 560.3 145.704C560.9 145.404 561.5 145.104 561.6 145.104C561.6 145.004 561.7 145.704 561.7 146.504ZM661 146.504C661 146.704 659.1 147.904 656.8 149.104C654.5 150.304 652 151.904 651.2 152.604C650.5 153.404 648.9 154.004 647.7 154.004C646 154.004 645.8 153.804 647 153.104C647.8 152.504 648.8 152.404 649.2 152.604C649.6 152.904 650 152.704 650 152.204C650 151.704 652.4 150.104 655.3 148.604C661 145.804 661 145.804 661 146.504ZM770 152.104C770 153.204 769.6 153.904 769 153.504C768.5 153.204 768.3 152.304 768.7 151.504C769.4 149.404 770 149.604 770 152.104ZM1032.3 153.104C1031.7 153.704 1030.4 154.004 1029.4 153.704C1027.8 153.304 1027.9 153.204 1029.8 153.104C1031 153.104 1032 152.504 1032 151.804C1032 151.204 1032.3 151.004 1032.7 151.304C1033.1 151.704 1032.9 152.504 1032.3 153.104ZM923.4 153.904C922.4 154.904 921.1 155.504 920.6 155.204C920.1 154.904 920.8 154.104 922.1 153.404C925.4 151.604 925.7 151.704 923.4 153.904ZM90 154.504C89.3 155.304 88.2 156.004 87.6 156.004C87 156.004 87.4 155.304 88.4 154.504C90.9 152.604 91.6 152.604 90 154.504ZM810.6 154.504C809.5 155.304 808.1 156.004 807.6 156.004C807 155.904 807.6 155.304 809 154.504C812.2 152.604 813 152.704 810.6 154.504ZM86 155.904C86 156.404 85 157.004 83.8 157.304C81.6 157.904 81.6 157.904 83.4 156.504C85.7 154.804 86 154.704 86 155.904ZM363 157.504C362.3 158.304 361 159.004 360.1 159.004C359 158.904 359.3 158.504 361 157.504C364.2 155.704 364.5 155.704 363 157.504ZM80.8 158.504C79.8 159.504 75.9 159.904 76.5 158.904C76.9 158.404 77.5 158.204 78 158.504C78.5 158.804 79.2 158.504 79.5 157.904C79.9 157.404 80.5 157.104 80.8 157.404C81.1 157.704 81.1 158.204 80.8 158.504ZM1018 158.504C1017.3 159.304 1016.2 160.004 1015.6 160.004C1015 160.004 1015.4 159.304 1016.4 158.504C1018.9 156.604 1019.6 156.604 1018 158.504ZM357.5 159.004C356.9 159.904 350.5 162.004 348.5 161.904C347.5 161.904 355.7 158.304 357.3 158.104C357.8 158.004 357.9 158.404 357.5 159.004ZM908 159.504C908 161.204 894.4 166.004 890.2 165.904L885.5 165.704L891 165.004C894 164.704 899 163.204 902 161.804C908.5 158.704 908 158.904 908 159.504ZM1008.9 161.404C1008.7 161.604 1007.4 162.304 1006 162.904C1003.6 164.004 1003.6 164.004 1005.4 162.604C1007 161.304 1010.3 160.204 1008.9 161.404ZM346 163.004C345.2 163.504 343.6 163.904 342.5 163.904C340.9 163.804 340.9 163.704 343 163.004C346.5 161.904 347.8 161.904 346 163.004ZM334 165.204C334 166.204 330.3 166.104 327 165.004C325.1 164.404 325.6 164.304 329.2 164.404C331.9 164.404 334 164.804 334 165.204Z" fill="url(#paint0_linear_3_3)"/>
<path fill-rule="evenodd" clip-rule="evenodd" d="M364.8 216.004C349.6 220.604 344 238.904 354.2 250.004C359.4 255.604 364.4 257.304 374.2 256.804C379.3 256.504 383.8 255.704 385.8 254.704C389 253.004 389 252.904 389 245.504C389 239.504 389.3 238.004 390.5 238.004C391.3 238.004 392 237.404 392 236.604C392 234.704 378 233.704 376.1 235.504C375 236.604 375.2 237.104 377.3 238.404C379.5 239.904 379.7 240.604 379.4 244.804C378.7 251.404 378.6 251.604 374.4 252.304C362.9 254.204 354.5 240.604 359.8 228.704C364.3 218.504 376.3 217.304 383.9 226.304L386.5 229.404L387.1 225.404C388 219.804 386.8 217.304 382.3 216.104C377.9 214.804 368.7 214.804 364.8 216.004ZM502.5 216.604C491.1 220.804 485.7 234.204 490.9 245.504C497.4 259.904 519.9 261.204 529.4 247.904C533.3 242.304 534.1 233.304 531.2 226.804C526.9 217.104 513.8 212.404 502.5 216.604ZM517 218.004C518 218.604 517.2 218.704 514.5 218.304C509.6 217.604 508.7 217.004 512.6 217.004C514.2 217.004 516.2 217.504 517 218.004ZM500.6 220.504C499.5 221.304 498.1 222.004 497.6 222.004C497 221.904 497.6 221.304 499 220.504C502.2 218.604 503 218.704 500.6 220.504ZM517 221.504C523.2 224.704 525.8 236.104 522.2 244.204C516 258.404 498.2 253.004 498 236.904C497.9 224.004 507.3 216.504 517 221.504ZM647.6 216.004C641.3 216.504 639.5 218.104 642.9 220.004C644.9 221.004 645 221.904 645 236.504C645 251.004 644.9 251.904 643 252.504C641.9 252.804 641 253.804 641 254.604C641 255.704 642.8 256.004 649.5 256.004C658.4 256.004 659.3 255.504 656 252.504C654.5 251.104 654 249.404 654 245.104V239.504L657.8 239.604C663 239.804 669.1 237.604 671.8 234.504C674.2 231.604 674.9 224.504 673 220.904C670.6 216.504 661.8 214.804 647.6 216.004ZM659.8 217.704C658.8 217.904 657 217.904 655.8 217.704C654.5 217.504 655.3 217.304 657.5 217.304C659.7 217.204 660.7 217.404 659.8 217.704ZM664 222.004C669 227.004 665.2 235.004 658 235.004H654V228.204C654 224.404 654.3 221.004 654.7 220.704C656.1 219.204 662.1 220.104 664 222.004ZM658.6 237.804C657.6 238.004 656.4 237.804 655.8 237.204C655.2 236.604 655.8 236.504 657.7 236.804C659.8 237.304 660 237.504 658.6 237.804ZM422 216.904C422 217.404 423.1 218.504 424.6 219.404L427.1 221.104L426.9 236.104C426.7 249.504 426.5 251.204 424.9 252.104C423.8 252.604 423 253.704 423 254.504C423 255.704 424.6 256.004 431 256.004C439 256.004 440.8 255.104 437.6 252.604C435.9 251.304 435 239.804 436.6 239.304C437.1 239.104 438.8 241.104 440.4 243.704C442.1 246.204 445 250.104 447 252.204C450.4 255.704 451.1 256.004 456.3 256.004C462.9 256.004 463.8 254.404 458.7 252.004C455.6 250.504 447.1 240.604 447 238.304C447 237.704 447.9 236.904 449 236.504C452.3 235.504 455 231.104 455 226.804C455 217.904 451.5 216.004 434.5 216.004C427.6 216.004 422 216.404 422 216.904ZM444.4 222.104C446 223.304 447 225.104 447 226.604C447 230.004 441.9 235.004 438.6 235.004C436 235.004 436 234.904 436 227.504V220.004H438.9C440.4 220.004 442.9 220.904 444.4 222.104ZM429.7 228.704C429.5 230.304 429.3 229.204 429.3 226.504C429.3 223.704 429.5 222.504 429.7 223.704C429.9 225.004 429.9 227.204 429.7 228.704ZM429.7 238.704C429.4 239.704 429.2 238.904 429.2 237.004C429.2 235.104 429.4 234.304 429.7 235.204C429.9 236.204 429.9 237.804 429.7 238.704ZM564.5 217.004C563.7 218.304 564.8 220.004 566.5 220.004C568.6 220.004 569 222.404 569 234.804C569 245.604 569.2 246.804 571.4 250.104C575 255.404 579.8 257.304 588.1 256.804C600.6 256.104 603.9 251.504 604.6 233.404C605 223.404 605.3 221.304 607 219.504C609.8 216.604 608.8 216.004 600.9 216.004C593 216.004 591.8 217.004 596 220.004L599 222.104V232.804C599 241.604 598.6 244.104 597.1 246.604C593.6 252.304 583.6 253.604 579.4 248.904C577.8 247.104 577.4 244.804 577.2 233.504C576.8 220.804 576.9 220.304 578.9 219.704C580.1 219.404 581 218.504 581 217.604C581 216.304 579.7 216.004 573.1 216.004C568.7 216.004 564.8 216.404 564.5 217.004ZM571.6 220.204C571.6 221.204 571.5 222.004 571.3 222.004C571.2 222.004 570.6 221.204 570.1 220.204C569.4 218.904 569.5 218.304 570.3 218.304C571 218.304 571.6 219.204 571.6 220.204ZM601.8 224.104C601.5 226.104 601.3 226.004 600.9 223.204C600.6 221.204 600.7 220.304 601.3 220.904C601.8 221.404 602 222.804 601.8 224.104ZM601.7 239.204C601.5 240.504 601.3 239.704 601.3 237.504C601.2 235.304 601.4 234.304 601.7 235.204C601.9 236.204 601.9 238.004 601.7 239.204ZM577.1 251.304C576.3 252.104 575.7 252.004 574.8 251.104C573.7 250.104 573.9 250.004 575.4 250.604C576.9 251.204 577.1 251.004 576.5 250.004C575.9 249.104 576.1 248.904 576.9 249.504C577.8 250.004 577.9 250.504 577.1 251.304Z" fill="url(#paint1_linear_3_3)"/>
<path fill-rule="evenodd" clip-rule="evenodd" d="M173 233.504C172.3 234.304 172 235.704 172.4 236.504C173.3 238.904 318.1 238.804 320.1 236.404C321.2 235.004 321.1 234.604 319.5 233.404C316.6 231.204 174.8 231.304 173 233.504ZM318.3 234.704C318.6 235.204 286.9 235.504 247.9 235.504C208.9 235.504 177 235.204 177 234.704C177 233.804 317.7 233.804 318.3 234.704ZM702.2 232.904C701.4 233.404 701 234.604 701.2 235.604C701.5 237.404 703.9 237.504 776.5 237.504C849.1 237.504 851.5 237.404 851.8 235.604C852 234.604 851.6 233.404 850.8 232.904C849.1 231.804 703.9 231.804 702.2 232.904ZM727.8 234.704C724.6 234.904 719.2 234.904 715.8 234.704C712.3 234.504 714.9 234.404 721.5 234.404C728.1 234.404 730.9 234.504 727.8 234.704ZM821.3 234.704C805.2 234.904 778.8 234.904 762.8 234.704C746.7 234.604 759.8 234.504 792 234.504C824.2 234.504 837.3 234.604 821.3 234.704Z" fill="url(#paint2_linear_3_3)"/>
<defs>
<linearGradient id="paint0_linear_3_3" x1="0" y1="176.004" x2="0" y2="7.62939e-06" gradientUnits="userSpaceOnUse">
<stop stop-color="#E8C36B"/>
<stop offset="0.35" stop-color="#C9982E"/>
<stop offset="0.55" stop-color="#F4E08A"/>
<stop offset="0.8" stop-color="#B6831F"/>
<stop offset="1" stop-color="#8C6212"/>
</linearGradient>
<linearGradient id="paint1_linear_3_3" x1="349.03" y1="257.138" x2="349.03" y2="215.062" gradientUnits="userSpaceOnUse">
<stop stop-color="#E8C36B"/>
<stop offset="0.35" stop-color="#C9982E"/>
<stop offset="0.55" stop-color="#F4E08A"/>
<stop offset="0.8" stop-color="#B6831F"/>
<stop offset="1" stop-color="#8C6212"/>
</linearGradient>
<linearGradient id="paint2_linear_3_3" x1="172.221" y1="238.255" x2="172.221" y2="231.803" gradientUnits="userSpaceOnUse">
<stop stop-color="#E8C36B"/>
<stop offset="0.35" stop-color="#C9982E"/>
<stop offset="0.55" stop-color="#F4E08A"/>
<stop offset="0.8" stop-color="#B6831F"/>
<stop offset="1" stop-color="#8C6212"/>
</linearGradient>
</defs>
</svg>
